<svg width="32" height="32" viewBox="0 0 32 32" fill="none" xmlns="http://www.w3.org/2000/svg">
<path d="M5.81818 6.54541H9.95004C10.9242 6.54541 11.7567 7.24731 11.9213 8.20748L13.845 19.4288C14.0096 20.389 14.842 21.0909 15.8162 21.0909H22.4294C23.3984 21.0909 24.2279 20.3963 24.3983 19.4424L25.7619 11.8061C25.9808 10.5802 25.0383 9.45449 23.793 9.45449H16.2078M17.039 13.6103H22.4416" stroke="black" stroke-width="1.5" stroke-linecap="round"/>
<path d="M17.6727 17.4546H21.6727M17.6727 24.2546C17.6727 24.9173 17.1355 25.4546 16.4727 25.4546C15.81 25.4546 15.2727 24.9173 15.2727 24.2546C15.2727 23.5918 15.81 23.0546 16.4727 23.0546C17.1355 23.0546 17.6727 23.5918 17.6727 24.2546ZM23.2727 24.2546C23.2727 24.9173 22.7355 25.4546 22.0727 25.4546C21.41 25.4546 20.8727 24.9173 20.8727 24.2546C20.8727 23.5918 21.41 23.0546 22.0727 23.0546C22.7355 23.0546 23.2727 23.5918 23.2727 24.2546Z" stroke="#00C569" stroke-width="1.5" stroke-linecap="round" stroke-linejoin="round"/>
</svg>
