<svg width="52" height="14" viewBox="0 0 52 14" fill="none" xmlns="http://www.w3.org/2000/svg">
<path d="M7.20801 9.23633V11H0.672852V1.13574H7.20801V2.89941H2.7373V5.20312H6.95508V6.83691H2.7373V9.23633H7.20801ZM12.2734 8.53906H12.1504L10.749 11H8.63672L11.002 7.27441L8.62305 3.45996H10.9062L12.2393 5.93457H12.3623L13.6953 3.45996H15.8691L13.5039 7.18555L15.8896 11H13.6748L12.2734 8.53906ZM21.6729 3.33691C22.6299 3.33691 23.3818 3.68099 23.9287 4.36914C24.4756 5.05729 24.749 6.00977 24.749 7.22656C24.749 8.4388 24.4779 9.39128 23.9355 10.084C23.3932 10.7721 22.6504 11.1162 21.707 11.1162C21.1693 11.1162 20.7021 11.0046 20.3057 10.7812C19.9092 10.5579 19.6175 10.2458 19.4307 9.84473H19.3076V13.502H17.3184V3.45996H19.2461V4.69727H19.3691C19.5742 4.27344 19.8796 3.94076 20.2852 3.69922C20.6908 3.45768 21.1533 3.33691 21.6729 3.33691ZM20.9961 9.45508C21.5339 9.45508 21.9531 9.25911 22.2539 8.86719C22.5547 8.4707 22.7051 7.92383 22.7051 7.22656C22.7051 6.53385 22.5524 5.99154 22.2471 5.59961C21.9463 5.20312 21.5316 5.00488 21.0029 5.00488C20.4743 5.00488 20.055 5.2054 19.7451 5.60645C19.4398 6.00293 19.2871 6.54525 19.2871 7.2334C19.2871 7.92155 19.4398 8.46387 19.7451 8.86035C20.0505 9.25684 20.4674 9.45508 20.9961 9.45508ZM26.4375 11V0.582031H28.4268V11H26.4375ZM36.5615 10.1182C35.9053 10.8154 34.9984 11.1641 33.8408 11.1641C32.6833 11.1641 31.7741 10.8154 31.1133 10.1182C30.457 9.4209 30.1289 8.45703 30.1289 7.22656C30.1289 6.00521 30.4593 5.0459 31.1201 4.34863C31.7855 3.64681 32.6924 3.2959 33.8408 3.2959C34.9893 3.2959 35.8939 3.64681 36.5547 4.34863C37.2201 5.0459 37.5527 6.00521 37.5527 7.22656C37.5527 8.45703 37.2223 9.4209 36.5615 10.1182ZM33.8408 9.53711C34.3695 9.53711 34.7796 9.33659 35.0713 8.93555C35.363 8.52995 35.5088 7.96029 35.5088 7.22656C35.5088 6.50195 35.3607 5.93685 35.0645 5.53125C34.7728 5.12565 34.3649 4.92285 33.8408 4.92285C33.3122 4.92285 32.902 5.12565 32.6104 5.53125C32.3187 5.93685 32.1729 6.50195 32.1729 7.22656C32.1729 7.96029 32.3164 8.52995 32.6035 8.93555C32.8952 9.33659 33.3076 9.53711 33.8408 9.53711ZM39.1797 11V3.45996H41.1074V4.66309H41.2305C41.3307 4.28027 41.5586 3.96354 41.9141 3.71289C42.2741 3.46224 42.6911 3.33691 43.165 3.33691C43.5068 3.33691 43.7666 3.36882 43.9443 3.43262V5.24414C43.7347 5.16211 43.4202 5.12109 43.001 5.12109C42.4495 5.12109 42.0052 5.27376 41.668 5.5791C41.3353 5.88444 41.1689 6.29915 41.1689 6.82324V11H39.1797ZM48.3604 4.82031C47.9001 4.82031 47.5195 4.96842 47.2188 5.26465C46.9225 5.56087 46.7562 5.9528 46.7197 6.44043H49.9326C49.9098 5.93913 49.7572 5.54492 49.4746 5.25781C49.1966 4.96615 48.8252 4.82031 48.3604 4.82031ZM49.9736 8.85352H51.8262C51.6758 9.56901 51.293 10.1341 50.6777 10.5488C50.0671 10.959 49.3014 11.1641 48.3809 11.1641C47.2324 11.1641 46.3369 10.8223 45.6943 10.1387C45.0518 9.45052 44.7305 8.49349 44.7305 7.26758C44.7305 6.04167 45.054 5.07324 45.7012 4.3623C46.3483 3.65137 47.2324 3.2959 48.3535 3.2959C49.4655 3.2959 50.3314 3.63086 50.9512 4.30078C51.5755 4.9707 51.8877 5.90495 51.8877 7.10352V7.71191H46.7129V7.81445C46.7266 8.375 46.8861 8.81934 47.1914 9.14746C47.5013 9.47103 47.916 9.63281 48.4355 9.63281C48.8275 9.63281 49.1556 9.56673 49.4199 9.43457C49.6842 9.29785 49.8688 9.10417 49.9736 8.85352Z" fill="black"/>
</svg>
