<svg width="32" height="32" viewBox="0 0 32 32" fill="none" xmlns="http://www.w3.org/2000/svg">
<path d="M17.0909 21.4546H20.7273" stroke="#00C569" stroke-width="1.5" stroke-linecap="round"/>
<path d="M17.9146 15.6363C18.1278 15.4472 18.3429 15.2091 18.5455 14.9091C19.5704 13.3907 19.9363 10.4543 19.2727 9.09089C19.042 8.61691 18.6154 8.26306 18.1332 8.00012C16.6054 7.16686 14.6673 7.16686 13.1395 8.00012C12.6574 8.26306 12.2307 8.61691 12 9.09089C11.3364 10.4543 11.7023 13.3907 12.7273 14.9091C12.9298 15.2091 13.1449 15.4472 13.3581 15.6363M17.9146 15.6363C17.126 16.3358 15.6364 16.3636 15.6364 16.3636C15.6364 16.3636 14.1467 16.3358 13.3581 15.6363M17.9146 15.6363C19.9287 17.094 22.8745 19.0987 23.8187 20.7652C23.9391 20.9778 24 21.4633 24 21.4633V23.6363C24 24.4397 23.3488 25.0909 22.5455 25.0909H15.6364H8.72727C7.92395 25.0909 7.27273 24.4397 7.27273 23.6363V21.5542C7.27273 21.4937 7.27633 21.4334 7.28578 21.3736C7.30957 21.2231 7.36585 20.9209 7.45407 20.7652C8.39827 19.0987 11.344 17.094 13.3581 15.6363" stroke="black" stroke-width="1.5" stroke-linecap="round"/>
</svg>
