<svg width="52" height="52" viewBox="0 0 52 52" fill="none" xmlns="http://www.w3.org/2000/svg">
<path d="M34.7186 39.3415L35.0692 39.1312C35.8143 35.9494 36.3441 34.1993 37.6255 31.1782C36.9283 29.9237 36.3951 29.5073 35.0692 29.474H34.2732C33.2369 29.474 32.332 30.1751 32.073 31.1785L30.6996 36.5004C30.4319 37.5379 30.9253 38.6214 31.8836 39.1006L31.9448 39.1312L32.5333 39.4255C33.2282 39.7729 34.0524 39.7412 34.7186 39.3415Z" fill="#3CB769"/>
<path d="M40.0263 32.4159L39.6138 31.1782H37.6255C36.3441 34.1993 35.8143 35.9494 35.0692 39.1312H36.9935C37.8952 39.1312 38.7222 38.6017 39.0496 37.7615C39.6174 36.3043 39.9178 35.1153 40.127 33.3714C40.1656 33.0496 40.1288 32.7234 40.0263 32.4159Z" fill="#3CB769"/>
<path d="M17.2415 39.3416L16.891 39.1312C16.1459 35.9494 15.616 34.1994 14.3347 31.1782C15.0318 29.9237 15.5651 29.5073 16.891 29.474H17.687C18.7232 29.474 19.6282 30.1751 19.8872 31.1785L21.2606 36.5004C21.5283 37.5379 21.0349 38.6214 20.0766 39.1006L20.0154 39.1312L19.4268 39.4255C18.7319 39.7729 17.9077 39.7413 17.2415 39.3416Z" fill="#3CB769"/>
<path d="M11.9338 32.416L12.3464 31.1782H14.3347C15.616 34.1994 16.1459 35.9494 16.891 39.1312H14.9667C14.0649 39.1312 13.2379 38.6017 12.9105 37.7615C12.3428 36.3043 12.0424 35.1153 11.8332 33.3714C11.7946 33.0496 11.8314 32.7234 11.9338 32.416Z" fill="#3CB769"/>
<path d="M39.6138 26.6337C39.6138 19.104 33.5098 13 25.9801 13C18.4504 13 12.3464 19.104 12.3464 26.6337M39.6138 26.6337H37.6255M39.6138 26.6337V31.1782M37.6255 26.6337V29.474V31.1782M37.6255 26.6337V26.6337C36.3776 26.6337 35.3665 25.6639 35.076 24.4503C34.0274 20.0691 30.8789 17.1364 25.9801 17.1364C21.0588 17.1364 17.9039 19.775 16.8698 24.4483C16.6003 25.6668 15.5825 26.6337 14.3347 26.6337M39.6138 31.1782L40.0263 32.4159C40.1288 32.7234 40.1656 33.0496 40.127 33.3714C39.9178 35.1153 39.6174 36.3043 39.0496 37.7615C38.7222 38.6017 37.8952 39.1312 36.9935 39.1312H35.0692M39.6138 31.1782H37.6255M35.0692 39.1312L34.7186 39.3415C34.0524 39.7412 33.2282 39.7729 32.5333 39.4255L31.9448 39.1312M35.0692 39.1312C35.8143 35.9494 36.3441 34.1993 37.6255 31.1782M37.6255 31.1782C36.9283 29.9237 36.3951 29.5073 35.0692 29.474H34.2732C33.2369 29.474 32.332 30.1751 32.073 31.1785L30.6996 36.5004C30.4319 37.5379 30.9253 38.6214 31.8836 39.1006L31.9448 39.1312M31.9448 39.1312L33.649 34.5866M34.5011 32.3144L34.2881 32.8824M12.3464 26.6337H14.3347M12.3464 26.6337V31.1782M14.3347 26.6337V29.474V31.1782M12.3464 31.1782L11.9338 32.416C11.8314 32.7234 11.7946 33.0496 11.8332 33.3714C12.0424 35.1153 12.3428 36.3043 12.9105 37.7615C13.2379 38.6017 14.0649 39.1312 14.9667 39.1312H16.891M12.3464 31.1782H14.3347M16.891 39.1312L17.2415 39.3416C17.9077 39.7413 18.7319 39.7729 19.4268 39.4255L20.0154 39.1312M16.891 39.1312C16.1459 35.9494 15.616 34.1994 14.3347 31.1782M14.3347 31.1782C15.0318 29.9237 15.5651 29.5073 16.891 29.474H17.687C18.7232 29.474 19.6282 30.1751 19.8872 31.1785L21.2606 36.5004C21.5283 37.5379 21.0349 38.6214 20.0766 39.1006L20.0154 39.1312M20.0154 39.1312L18.3111 34.5867M17.459 32.3144L17.6721 32.8825" stroke="black" stroke-width="1.5" stroke-linecap="round"/>
</svg>
