<svg width="52" height="52" viewBox="0 0 52 52" fill="none" xmlns="http://www.w3.org/2000/svg">
<path d="M13.5951 36.1809C13.5951 37.0532 14.3022 37.7603 15.1745 37.7603C16.0468 37.7603 16.7539 37.0532 16.7539 36.1809V30.2608C16.7539 29.6528 16.9292 29.0637 17.0873 28.4767C17.1776 28.1412 17.2336 27.7634 17.2804 27.2309L12.0157 23.2824C12.2532 25.2212 12.4948 26.4508 13.317 28.6218C13.4965 29.0957 13.5951 29.5971 13.5951 30.1039V36.1809Z" fill="#3CB769"/>
<path d="M12.0157 23.2824C11.3006 20.49 12.675 17.6666 13.78 16.267C14.3773 15.5105 15.4016 15.5955 16.0833 16.277C19.096 19.2888 26.4625 28.9436 27.0201 29.8633C27.6842 30.9586 28.4053 31.5476 29.6524 31.9692C30.8211 32.3642 32.8112 31.9692 32.8112 31.9692L33.5499 31.6922C34.4329 31.361 35.4147 31.3294 36.2742 31.7175C38.0413 32.5153 39.0332 33.4629 39.7179 35.2225C40.0513 36.0792 39.6294 37.0231 38.8312 37.4792V37.4792C38.5092 37.6631 38.1433 37.7562 37.7726 37.7483L28.495 37.5509C26.9511 37.518 25.5696 36.5967 24.8349 35.2384C23.9904 33.6773 22.767 31.6606 21.4921 30.3897C20.0361 28.9382 17.2804 27.2309 17.2804 27.2309M12.0157 23.2824L17.2804 27.2309M12.0157 23.2824C12.2532 25.2212 12.4948 26.4508 13.317 28.6218C13.4965 29.0957 13.5951 29.5971 13.5951 30.1039V36.1809C13.5951 37.0532 14.3022 37.7603 15.1745 37.7603V37.7603C16.0468 37.7603 16.7539 37.0532 16.7539 36.1809V30.2608C16.7539 29.6528 16.9292 29.0637 17.0873 28.4767C17.1776 28.1412 17.2336 27.7634 17.2804 27.2309M28.9545 35.4545H34.2446M36.6364 35.4545H37.2863" stroke="black" stroke-width="1.5" stroke-linecap="round"/>
</svg>
