<svg width="52" height="52" viewBox="0 0 52 52" fill="none" xmlns="http://www.w3.org/2000/svg">
<path d="M19.4598 34.3304H43.2081C43.8391 34.3304 44.3505 33.8189 44.3505 33.188V31.4744H36.7821H29.2136C29.2136 31.4744 20.8354 31.9691 15.5047 31.4744C12.4432 31.1903 7.71495 30.332 7.71495 30.332C8.16776 31.1003 9.02671 32.0286 10.6494 32.9024C11.8896 33.5702 12.9705 33.9512 13.8601 34.1625C15.1783 34.4756 16.5474 34.4229 17.9129 34.3702C18.43 34.3503 18.9467 34.3304 19.4598 34.3304Z" fill="#3CB769"/>
<path d="M12.3631 24.6199C9.3867 25.267 8.05211 26.1486 7.48256 26.9193C6.78435 27.8642 7.11842 29.3199 7.71495 30.332M12.3631 24.6199C13.861 24.2943 15.5223 23.731 17.2183 23.0622M12.3631 24.6199C12.3631 24.6199 13.5055 26.3336 14.6479 26.9048C15.7903 27.476 24.3584 28.6184 24.3584 28.6184M34.3544 20.9071C34.3544 20.9071 32.6408 18.3367 30.6416 17.7655C29.9307 17.5624 28.2449 18.1898 26.072 19.147M34.3544 20.9071L35.1566 21.5488C35.5617 21.8729 36.0651 22.0495 36.5839 22.0495H38.4251M34.3544 20.9071C34.3544 20.9071 29.4992 26.048 27.7856 26.9048L24.3584 28.6184M17.2183 23.0622L18.9319 25.4767M17.2183 23.0622C18.2624 22.6505 19.3196 22.1988 20.3599 21.7379M20.3599 21.7379L22.0735 24.3343M20.3599 21.7379C21.335 21.3059 22.2953 20.8658 23.2159 20.443M23.2159 20.443L24.9296 22.9063M23.2159 20.443L23.3849 20.3654M23.2159 20.443C23.2724 20.4171 23.3288 20.3912 23.3849 20.3654M26.072 19.147L27.7856 21.7639M26.072 19.147C25.2387 19.5141 24.3339 19.9296 23.3849 20.3654M24.3584 28.6184L29.2136 31.4744M29.2136 31.4744C29.2136 31.4744 20.8354 31.9691 15.5047 31.4744C12.4432 31.1903 7.71495 30.332 7.71495 30.332M29.2136 31.4744H36.7821M7.71495 30.332C8.16776 31.1003 9.02671 32.0286 10.6494 32.9024C11.8896 33.5702 12.9705 33.9512 13.8601 34.1625C15.1783 34.4756 16.5474 34.4229 17.9129 34.3702C18.43 34.3503 18.9467 34.3304 19.4598 34.3304H43.2081C43.839 34.3304 44.3505 33.8189 44.3505 33.188V31.4744M44.3505 31.4744V31.4067C44.3505 31.0784 44.4477 30.7574 44.6298 30.4843C44.8198 30.1993 44.9171 29.8627 44.9086 29.5203L44.7575 23.4775M44.3505 31.4744H36.7821M36.7821 31.4744C37.688 26.9007 39.1267 24.9478 44.7575 23.4775M44.7575 23.4775L44.664 19.7362C44.6485 19.1165 44.1417 18.6223 43.5219 18.6223H43.0139C42.4902 18.6223 42.0657 19.0468 42.0657 19.5705C42.0657 20.2243 41.7289 20.832 41.1744 21.1786L40.9306 21.331M38.4251 22.0495C39.3111 22.0495 40.1793 21.8005 40.9306 21.331M38.4251 22.0495H38.6337C39.3834 22.0495 40.118 21.8388 40.7537 21.4415L40.9306 21.331" stroke="black" stroke-width="1.5" stroke-linecap="round"/>
</svg>
