<svg width="36" height="25" viewBox="0 0 36 25" fill="none" xmlns="http://www.w3.org/2000/svg">
<path d="M12.1644 7.24752L12.4562 8.03605C12.6047 8.43738 12.9211 8.75379 13.3225 8.9023L14.111 9.19408C15.3875 9.66642 15.3875 11.4719 14.111 11.9442L13.3225 12.236C12.9211 12.3845 12.6047 12.7009 12.4562 13.1022L12.1644 13.8908C11.6921 15.1673 9.88665 15.1673 9.41431 13.8908L9.12253 13.1022C8.97402 12.7009 8.65761 12.3845 8.25628 12.236L7.46775 11.9442C6.19126 11.4719 6.19126 9.66642 7.46775 9.19408L8.25628 8.9023C8.6576 8.75379 8.97402 8.43738 9.12253 8.03605L9.41431 7.24752C9.88665 5.97103 11.6921 5.97103 12.1644 7.24752Z" fill="#3CB769"/>
<path d="M28.3836 7.05031C28.3836 7.69811 27.8584 8.22325 27.2106 8.22325C26.5628 8.22325 26.0377 7.69811 26.0377 7.05031C26.0377 6.40251 26.5628 5.87736 27.2106 5.87736C27.8584 5.87736 28.3836 6.40251 28.3836 7.05031Z" fill="#3CB769"/>
<path d="M31.3159 9.98267C31.3159 10.6305 30.7908 11.1556 30.143 11.1556C29.4952 11.1556 28.97 10.6305 28.97 9.98267C28.97 9.33487 29.4952 8.80972 30.143 8.80972C30.7908 8.80972 31.3159 9.33487 31.3159 9.98267Z" fill="#3CB769"/>
<path d="M28.3836 12.915C28.3836 13.5628 27.8584 14.088 27.2106 14.088C26.5628 14.088 26.0377 13.5628 26.0377 12.915C26.0377 12.2672 26.5628 11.7421 27.2106 11.7421C27.8584 11.7421 28.3836 12.2672 28.3836 12.915Z" fill="#3CB769"/>
<path d="M25.4512 9.98267C25.4512 10.6305 24.926 11.1556 24.2782 11.1556C23.6304 11.1556 23.1053 10.6305 23.1053 9.98267C23.1053 9.33487 23.6304 8.80972 24.2782 8.80972C24.926 8.80972 25.4512 9.33487 25.4512 9.98267Z" fill="#3CB769"/>
<path d="M12.1644 7.24752L12.4562 8.03605C12.6047 8.43738 12.9211 8.75379 13.3225 8.9023L14.111 9.19408C15.3875 9.66642 15.3875 11.4719 14.111 11.9442L13.3225 12.236C12.9211 12.3845 12.6047 12.7009 12.4562 13.1022L12.1644 13.8908C11.6921 15.1673 9.88665 15.1673 9.41431 13.8908L9.12253 13.1022C8.97402 12.7009 8.65761 12.3845 8.25628 12.236L7.46775 11.9442C6.19126 11.4719 6.19126 9.66642 7.46775 9.19408L8.25628 8.9023C8.6576 8.75379 8.97402 8.43738 9.12253 8.03605L9.41431 7.24752C9.88665 5.97103 11.6921 5.97103 12.1644 7.24752Z" stroke="black" stroke-width="1.5"/>
<path d="M28.3836 7.05031C28.3836 7.69811 27.8584 8.22325 27.2106 8.22325C26.5628 8.22325 26.0377 7.69811 26.0377 7.05031C26.0377 6.40251 26.5628 5.87736 27.2106 5.87736C27.8584 5.87736 28.3836 6.40251 28.3836 7.05031Z" stroke="black" stroke-width="1.5"/>
<path d="M31.3159 9.98267C31.3159 10.6305 30.7908 11.1556 30.143 11.1556C29.4952 11.1556 28.97 10.6305 28.97 9.98267C28.97 9.33487 29.4952 8.80972 30.143 8.80972C30.7908 8.80972 31.3159 9.33487 31.3159 9.98267Z" stroke="black" stroke-width="1.5"/>
<path d="M28.3836 12.915C28.3836 13.5628 27.8584 14.088 27.2106 14.088C26.5628 14.088 26.0377 13.5628 26.0377 12.915C26.0377 12.2672 26.5628 11.7421 27.2106 11.7421C27.8584 11.7421 28.3836 12.2672 28.3836 12.915Z" stroke="black" stroke-width="1.5"/>
<path d="M25.4512 9.98267C25.4512 10.6305 24.926 11.1556 24.2782 11.1556C23.6304 11.1556 23.1053 10.6305 23.1053 9.98267C23.1053 9.33487 23.6304 8.80972 24.2782 8.80972C24.926 8.80972 25.4512 9.33487 25.4512 9.98267Z" stroke="black" stroke-width="1.5"/>
</svg>
