<svg width="52" height="52" viewBox="0 0 52 52" fill="none" xmlns="http://www.w3.org/2000/svg">
<path d="M24.5675 35.3471H27.719V25.0331H24.5675V35.3471Z" fill="#3CB769"/>
<path d="M21.7153 35.3471C21.714 35.4592 21.7119 35.5735 21.709 35.6905C21.7052 35.8435 21.7084 35.9959 21.7266 36.1478C21.7808 36.5994 21.9348 37.616 22.2755 38.2121C22.5362 38.6684 23.0765 39.1764 23.4822 39.5211C23.8073 39.7973 24.2246 39.9311 24.6512 39.9311H27.3488C27.7754 39.9311 28.1927 39.7973 28.5178 39.5211C28.9235 39.1764 29.4638 38.6684 29.7245 38.2121C30.0652 37.616 30.2192 36.5994 30.2734 36.1478C30.2916 35.9959 30.2948 35.8435 30.291 35.6905C30.2881 35.5735 30.286 35.4592 30.2847 35.3471H27.719H24.5675H21.7153Z" fill="#3CB769"/>
<path d="M21.7153 35.3471C21.7321 33.8269 21.5867 32.7293 20.9876 31.1917C20.7291 30.5282 20.2427 29.9882 19.7111 29.5143C17.7687 27.7828 16.5455 25.2615 16.5455 22.4545C16.5455 17.2329 20.7784 13 26 13C31.2216 13 35.4545 17.2329 35.4545 22.4545C35.4545 25.2615 34.2313 27.7828 32.2888 29.5143C31.7573 29.9882 31.2709 30.5282 31.0124 31.1917C30.4133 32.7293 30.2679 33.8269 30.2847 35.3471M21.7153 35.3471C21.7132 35.5314 21.7088 35.7219 21.7025 35.9201C21.7025 35.9201 21.8279 37.4289 22.2755 38.2121C22.5362 38.6684 23.0765 39.1764 23.4822 39.5211C23.8073 39.7973 24.2246 39.9311 24.6512 39.9311H27.3488C27.7754 39.9311 28.1927 39.7973 28.5178 39.5211C28.9235 39.1764 29.4638 38.6684 29.7245 38.2121C30.1721 37.4289 30.2975 35.9201 30.2975 35.9201C30.2912 35.7219 30.2868 35.5314 30.2847 35.3471M21.7153 35.3471H24.5675M30.2847 35.3471H24.5675M30.2847 35.3471H27.719M24.5675 35.3471V25.0331M24.5675 35.3471H27.719M24.5675 25.0331C24.5675 25.0331 24.8488 23.9236 24.5675 23.3141C24.2673 22.6636 23.8514 22.1602 23.135 22.168C22.3439 22.1767 21.7025 22.8094 21.7025 23.6006C21.7025 24.3917 22.3844 24.7829 23.135 25.0331C23.6657 25.21 24.5675 25.0331 24.5675 25.0331ZM24.5675 25.0331H27.719M27.719 35.3471V25.0331M27.719 25.0331C27.719 25.0331 27.4377 23.9236 27.719 23.3141C28.0192 22.6636 28.4351 22.1602 29.1515 22.168C29.9426 22.1767 30.584 22.8094 30.584 23.6006C30.584 24.3917 29.9021 24.7829 29.1515 25.0331C28.6208 25.21 27.719 25.0331 27.719 25.0331ZM18.9091 22.4545C18.9407 22.3578 18.9725 22.2623 19.0042 22.168M26 15.9545C22.8582 16.0612 21.1946 17.1945 19.8977 19.9093" stroke="black" stroke-width="1.5" stroke-linecap="round"/>
</svg>
